<?xml version="1.0" standalone="no"?>
<!DOCTYPE svg PUBLIC "-//W3C//DTD SVG 20010904//EN"
 "http://www.w3.org/TR/2001/REC-SVG-20010904/DTD/svg10.dtd">
<svg version="1.0" xmlns="http://www.w3.org/2000/svg"
 width="363.000000pt" height="347.000000pt" viewBox="0 0 363.000000 347.000000"
 preserveAspectRatio="xMidYMid meet">

<g transform="translate(0.000000,347.000000) scale(0.100000,-0.100000)"
fill="currentColor" stroke="none">
<path d="M1900 3359 c-63 -25 -110 -101 -110 -177 0 -146 197 -217 306 -111
61 59 66 165 12 234 -42 54 -143 80 -208 54z"/>
<path d="M1747 2748 c-43 -184 -85 -394 -133 -680 -34 -203 -36 -230 -44 -557
-9 -336 -24 -535 -41 -529 -26 9 -240 222 -462 461 -269 288 -509 527 -528
527 -7 0 -31 -11 -55 -25 l-42 -25 30 -97 c36 -117 117 -327 185 -478 58 -129
436 -885 440 -881 2 2 -38 102 -88 222 -185 448 -283 694 -340 862 -32 96 -55
172 -51 170 14 -5 102 -106 304 -349 229 -275 403 -465 516 -568 l82 -73 74
16 74 17 22 51 c59 138 83 299 100 668 6 129 18 280 26 335 9 55 18 117 21
138 3 20 8 37 12 37 3 0 16 -83 29 -185 35 -289 142 -901 178 -1027 6 -20 73
-43 178 -60 l69 -11 29 34 c50 58 218 313 363 549 145 236 295 463 302 456 13
-12 -146 -499 -257 -787 -62 -163 -219 -548 -226 -557 -1 -2 -35 8 -76 21
-134 46 -375 77 -603 77 -262 -1 -455 -50 -647 -167 -74 -45 -78 -49 -78 -82
0 -62 7 -66 122 -65 57 1 185 13 285 28 247 35 324 34 520 -8 186 -40 310 -60
344 -53 21 4 20 4 -6 6 -42 2 -219 45 -351 86 -165 52 -244 60 -464 46 -102
-7 -197 -14 -212 -17 -50 -10 -29 12 30 31 119 37 171 46 312 52 224 8 548
-36 685 -94 61 -25 138 -46 211 -57 l40 -6 86 183 c314 663 511 1191 613 1639
l35 153 -32 28 c-18 15 -65 44 -104 64 l-72 37 -66 -58 c-79 -70 -190 -190
-282 -306 -68 -87 -281 -405 -440 -657 -49 -78 -92 -139 -95 -135 -9 10 -74
392 -108 637 -35 248 -85 684 -104 913 -8 90 -19 168 -24 173 -17 17 -83 29
-169 29 l-80 0 -37 -152z"/>
<path d="M3270 2631 c-92 -92 -78 -206 33 -262 81 -42 185 -8 225 73 21 41 22
51 12 90 -24 89 -92 148 -173 148 -44 0 -52 -4 -97 -49z"/>
<path d="M247 2389 c-85 -90 -91 -215 -13 -289 21 -19 40 -25 89 -28 115 -6
197 60 197 160 0 65 -23 111 -72 147 -53 39 -90 47 -129 27 -40 -20 -45 -20
-29 -1 7 9 10 18 6 22 -3 4 -25 -14 -49 -38z"/>
</g>
</svg>
