<?xml version="1.0" standalone="no"?>
<!DOCTYPE svg PUBLIC "-//W3C//DTD SVG 20010904//EN"
 "http://www.w3.org/TR/2001/REC-SVG-20010904/DTD/svg10.dtd">
<svg version="1.0" xmlns="http://www.w3.org/2000/svg"
 width="1989.000000pt" height="692.000000pt" viewBox="0 0 1989.000000 692.000000"
 preserveAspectRatio="xMidYMid meet">

<g transform="translate(0.000000,692.000000) scale(0.100000,-0.100000)"
fill="rgb(0,150,0)" stroke="none">
<path d="M4865 4804 c-170 -26 -296 -67 -431 -138 -312 -166 -528 -456 -611
-818 -12 -52 -16 -120 -16 -238 0 -175 10 -243 58 -386 136 -404 489 -710 920
-795 103 -21 349 -18 455 5 493 106 871 503 945 993 94 625 -307 1213 -925
1354 -83 19 -327 33 -395 23z"/>
<path d="M9755 4804 c-168 -26 -282 -62 -418 -132 -317 -162 -546 -464 -623
-822 -26 -118 -26 -362 0 -480 102 -473 463 -834 936 -936 118 -26 362 -26
480 0 473 102 834 464 936 936 26 118 26 362 0 480 -101 467 -454 826 -916
931 -83 19 -327 33 -395 23z"/>
<path d="M14645 4804 c-168 -26 -282 -62 -418 -132 -335 -171 -576 -507 -632
-879 -96 -633 315 -1223 945 -1359 106 -23 352 -26 455 -5 245 48 457 161 631
335 170 170 275 363 331 608 23 102 23 374 0 476 -108 475 -455 828 -917 933
-83 19 -327 33 -395 23z"/>
</g>
</svg>
